HIERARCHY
ROOT root
{
	OFFSET 0.000000 0.000000 0.000000
	CHANNELS 6 Xposition Yposition Zposition Zrotation Yrotation Xrotation
	JOINT lhip
	{
		OFFSET 0.058581 -0.082280 -0.017664
		CHANNELS 3 Zrotation Yrotation Xrotation
		JOINT lknee
		{
			OFFSET 0.043451 -0.386469 0.008037
			CHANNELS 3 Zrotation Yrotation Xrotation
			JOINT lankle
			{
				OFFSET -0.014790 -0.426874 -0.037428
				CHANNELS 3 Zrotation Yrotation Xrotation
				JOINT ltoe
				{
					OFFSET 0.041054 -0.060286 0.122042
					CHANNELS 3 Zrotation Yrotation Xrotation
					End Site
					{
						OFFSET 0.000000 0.000000 0.000000
					}
				}
			}
		}
	}
	JOINT rhip
	{
		OFFSET -0.060310 -0.090513 -0.013543
		CHANNELS 3 Zrotation Yrotation Xrotation
		JOINT rknee
		{
			OFFSET -0.043257 -0.383688 -0.004843
			CHANNELS 3 Zrotation Yrotation Xrotation
			JOINT rankle
			{
				OFFSET 0.019056 -0.420046 -0.034562
				CHANNELS 3 Zrotation Yrotation Xrotation
				JOINT rtoe
				{
					OFFSET -0.034840 -0.062106 0.130323
					CHANNELS 3 Zrotation Yrotation Xrotation
					End Site
					{
						OFFSET 0.000000 0.000000 0.000000
					}
				}
			}
		}
	}
	JOINT lowerback
	{
		OFFSET 0.004439 0.124404 -0.038385
		CHANNELS 3 Zrotation Yrotation Xrotation
		JOINT upperback
		{
			OFFSET 0.004488 0.137956 0.026820
			CHANNELS 3 Zrotation Yrotation Xrotation
			JOINT chest
			{
				OFFSET -0.002265 0.056032 0.002855
				CHANNELS 3 Zrotation Yrotation Xrotation
				JOINT lowerneck
				{
					OFFSET -0.013390 0.211636 -0.033468
					CHANNELS 3 Zrotation Yrotation Xrotation
					JOINT upperneck
					{
						OFFSET 0.010113 0.088937 0.050410
						CHANNELS 3 Zrotation Yrotation Xrotation
						End Site
						{
							OFFSET 0.000000 0.000000 0.000000
						}
					}
				}
				JOINT lclavicle
				{
					OFFSET 0.071702 0.114000 -0.018898
					CHANNELS 3 Zrotation Yrotation Xrotation
					JOINT lshoulder
					{
						OFFSET 0.122921 0.045205 -0.019046
						CHANNELS 3 Zrotation Yrotation Xrotation
						JOINT lelbow
						{
							OFFSET 0.255332 -0.015649 -0.022946
							CHANNELS 3 Zrotation Yrotation Xrotation
							JOINT lwrist
							{
								OFFSET 0.265709 0.012698 -0.007375
								CHANNELS 3 Zrotation Yrotation Xrotation
								End Site
								{
									OFFSET 0.000000 0.000000 0.000000
								}
							}
						}
					}
				}
				JOINT rclavicle
				{
					OFFSET -0.082954 0.112472 -0.023707
					CHANNELS 3 Zrotation Yrotation Xrotation
					JOINT rshoulder
					{
						OFFSET -0.113228 0.046853 -0.008472
						CHANNELS 3 Zrotation Yrotation Xrotation
						JOINT relbow
						{
							OFFSET -0.260127 -0.014369 -0.031269
							CHANNELS 3 Zrotation Yrotation Xrotation
							JOINT rwrist
							{
								OFFSET -0.269108 0.006794 -0.006027
								CHANNELS 3 Zrotation Yrotation Xrotation
								End Site
								{
									OFFSET 0.000000 0.000000 0.000000
								}
							}
						}
					}
				}
			}
		}
	}
}
MOTION
Frames: 13
Frame Time: 0.033333
-1.782717 0.649890 0.991948 -63.603279 2.949253 84.918087 -1.852937 -1.275273 -2.512221 -6.379358 -7.938440 16.458827 5.598289 15.579754 -18.545693 0.000000 -0.000000 0.000000 -4.131810 2.021483 -15.141725 0.312475 5.554985 16.835358 4.201710 -5.170963 -8.660966 0.000000 -0.000000 0.000000 -4.889758 2.625473 10.067895 0.577181 -2.544199 24.653187 1.465910 1.287949 -5.702538 -0.425115 19.121547 -5.356244 0.795248 17.212908 -21.282343 -23.600170 -15.267773 3.932277 -56.602623 -14.305710 7.174315 23.453703 -18.251223 -24.603220 -5.315384 -2.297188 1.337221 22.428665 17.354788 9.896695 58.805518 17.355252 6.364608 -21.379775 23.913621 -15.217563 -6.417986 3.077198 2.175924 
-1.789930 0.650203 0.991287 -61.620562 2.699718 85.055476 -1.956383 -1.470823 -2.537866 -6.497213 -8.836756 17.122413 5.370814 15.002780 -19.337197 0.000000 -0.000000 0.000000 -4.378804 2.711450 -14.138747 -0.569289 6.906630 13.469369 4.534671 -4.607996 -9.314889 0.000000 -0.000000 0.000000 -4.754387 2.440825 10.107661 0.544986 -2.460997 24.760496 1.233617 1.688291 -5.913526 -0.702191 19.969957 -4.953073 0.331208 18.190511 -21.304881 -24.035199 -14.627155 3.623388 -56.396209 -14.039482 7.501100 23.091551 -17.899352 -24.186821 -5.320283 -2.462929 1.931110 22.585744 16.872400 10.069390 58.450678 17.469532 6.586325 -21.239146 23.839827 -15.650253 -6.400056 3.211048 2.499669 
-1.796975 0.652482 0.990491 -59.706013 2.423405 85.289351 -1.784122 -1.879728 -2.695958 -6.966040 -9.711445 17.727513 5.382511 14.600504 -19.884126 0.000000 -0.000000 0.000000 -4.418529 2.758193 -13.599357 -0.844162 8.179629 12.002175 4.704375 -4.363967 -8.699725 0.000000 -0.000000 0.000000 -4.372796 3.070702 9.971697 0.276691 -2.428697 24.764123 1.249923 1.305784 -5.624503 -1.011594 19.842728 -5.041627 0.381126 18.464566 -21.313412 -24.522776 -14.583267 3.974612 -55.905701 -13.218874 7.117102 23.715742 -19.626379 -24.828553 -4.791139 -1.480734 1.593676 23.018907 16.993476 10.253804 57.856101 17.410131 6.351422 -21.010758 24.210435 -15.273967 -6.147495 2.678601 1.763622 
-1.803231 0.654201 0.989824 -57.801134 1.873717 85.824392 -2.055679 -2.769871 -3.062834 -7.052838 -10.262811 17.893972 5.557840 14.093157 -20.077409 0.000000 -0.000000 0.000000 -4.786908 2.914751 -13.419830 -0.720093 8.694591 12.094083 4.908245 -3.588486 -7.446209 0.000000 -0.000000 0.000000 -4.452353 3.457192 9.525915 0.347094 -2.365686 25.163030 1.120940 1.255515 -5.813639 -0.739493 19.585668 -5.108549 0.371395 18.018263 -20.704661 -24.235407 -14.309873 3.492340 -56.184026 -13.619559 7.762148 23.098908 -18.509053 -24.529116 -5.035648 -2.593601 1.383271 23.158616 16.733672 9.932899 57.740269 17.434390 6.651159 -21.051668 23.735132 -15.747390 -6.204502 3.191013 2.146973 
-1.811420 0.656048 0.989870 -56.022542 1.510989 85.973841 -2.058391 -3.227364 -2.827748 -7.091764 -11.273071 18.064429 5.404525 13.796946 -20.667996 0.000000 -0.000000 0.000000 -4.603913 3.019313 -12.370401 -1.267877 8.714915 11.703331 4.016881 -3.634264 -7.475493 0.000000 -0.000000 0.000000 -4.410546 3.679613 9.236153 0.294622 -2.230101 25.668207 1.025156 1.306925 -6.006069 -0.334344 19.565489 -4.908326 0.258069 17.080852 -20.490943 -23.725877 -13.789735 2.756109 -56.621090 -14.427601 8.053084 22.134910 -16.731213 -23.946905 -5.704906 -3.655926 1.883341 23.314532 16.649916 9.789907 57.680839 17.604040 6.905375 -20.846150 23.021704 -15.786448 -6.128036 3.616943 2.494150 
-1.818826 0.658605 0.990331 -54.205309 1.447947 86.045864 -2.004887 -3.827628 -2.613863 -6.804833 -12.664705 18.214010 5.415139 14.063103 -20.869189 0.000000 -0.000000 0.000000 -4.427730 2.547604 -12.002620 -1.540794 7.946619 12.139992 3.601407 -5.024759 -6.950734 0.000000 -0.000000 0.000000 -4.289328 3.682685 9.423812 0.401294 -2.343768 25.647302 1.084224 1.402082 -5.824273 -0.653584 18.528775 -5.058974 0.630187 17.012484 -20.413057 -24.395311 -13.799282 3.478741 -56.122840 -13.556457 7.501249 22.744678 -19.317219 -24.752618 -4.970513 -2.087350 1.770483 23.559839 16.856182 9.894108 57.270405 17.742876 6.418907 -20.734541 23.199703 -15.585611 -5.972425 2.927193 2.425802 
-1.827046 0.661617 0.991263 -52.267031 1.747187 86.296267 -1.462298 -4.521227 -2.522266 -6.444969 -13.984760 18.245641 5.353685 14.067866 -20.959489 0.000000 -0.000000 0.000000 -3.871916 2.265317 -11.442662 -1.562135 6.890138 11.964439 3.059457 -5.697027 -6.534353 0.000000 -0.000000 0.000000 -3.955450 3.611654 9.325969 0.722261 -2.583538 26.106221 1.234270 1.377394 -6.049704 -0.473185 18.421791 -5.191680 0.547927 16.768799 -20.316071 -24.351251 -13.778557 3.573529 -56.579902 -13.688333 7.412696 22.937985 -19.154104 -24.660143 -5.922673 -1.780443 1.573196 23.432969 17.117932 9.704463 57.507001 17.703475 6.511076 -21.268648 23.246470 -15.873812 -5.607766 2.822529 2.341215 
-1.834401 0.665194 0.991837 -51.138223 1.534470 86.734660 -1.364796 -4.918181 -2.441462 -5.953717 -14.714885 17.688648 5.278735 13.974808 -21.088236 0.000000 -0.000000 0.000000 -3.848067 2.277697 -11.647482 -1.474461 6.241644 12.401793 3.038974 -6.069657 -6.550605 0.000000 -0.000000 0.000000 -4.101206 3.774730 9.437279 0.877929 -2.415033 25.764331 1.287478 1.373398 -5.925005 -0.714809 18.250996 -5.199543 0.905201 16.420819 -20.711313 -23.915833 -13.454196 3.488194 -57.045603 -13.856903 7.843910 22.537756 -19.204385 -24.445527 -6.907546 -1.083634 1.311977 23.600836 17.047744 9.763935 57.484506 18.033669 6.558008 -21.635641 23.598162 -16.283364 -5.236723 2.656531 1.905359 
-1.843024 0.667926 0.993021 -49.544563 1.576572 87.038487 -0.823917 -5.050030 -2.155401 -5.672333 -16.059870 17.122210 4.882152 13.549241 -21.095006 0.000000 -0.000000 0.000000 -3.509663 1.672944 -11.024826 -1.421340 5.184967 11.960523 2.762416 -6.401277 -6.914114 0.000000 -0.000000 0.000000 -4.244220 3.629971 9.191372 1.149021 -2.697241 26.029024 1.612049 1.377233 -5.831057 -0.777237 18.444793 -5.491036 0.750293 16.297882 -20.564259 -23.837361 -13.614688 3.625616 -57.136082 -14.052028 7.516232 21.905300 -18.570901 -24.302842 -7.862930 -1.839070 1.228519 23.695798 17.506856 9.656969 57.207230 17.974574 6.482452 -21.800521 23.747728 -16.095352 -4.461265 2.951387 2.127838 
-1.851206 0.671046 0.993891 -48.197602 1.436966 87.506749 -0.345304 -5.453674 -2.330603 -5.596377 -16.909939 16.907952 4.601769 13.257727 -20.902076 0.000000 -0.000000 0.000000 -3.382880 1.179076 -10.869856 -1.252586 4.403489 11.809906 2.523351 -6.758445 -7.122178 0.000000 -0.000000 0.000000 -4.291557 3.712224 9.046566 1.250929 -2.780034 26.060917 1.731224 1.306272 -5.908966 -0.616148 18.639934 -5.892427 0.707015 16.376732 -19.906920 -23.568013 -13.672598 3.684366 -57.306538 -14.168124 7.683773 21.779772 -18.600540 -23.799434 -7.975560 -1.655203 1.201177 23.671075 17.507140 9.606439 57.260171 18.068288 6.636524 -21.861835 24.011910 -15.872619 -4.478754 3.011373 1.980957 
-1.859580 0.674536 0.994832 -46.936698 1.120364 87.956024 0.141632 -5.430583 -2.805587 -5.811801 -17.493456 17.118702 4.201778 12.589156 -20.734345 0.000000 -0.000000 0.000000 -3.347880 0.381269 -10.710465 -1.119942 3.621811 11.621835 2.190157 -6.904081 -7.349869 0.000000 -0.000000 0.000000 -4.626794 3.871274 9.062230 1.296296 -2.865963 25.804168 1.876870 1.161381 -5.876107 -0.901621 18.930164 -5.937699 1.015105 16.086272 -20.058019 -23.304934 -13.709232 3.830937 -57.457461 -14.326277 7.603291 22.108924 -18.980219 -23.624396 -6.672488 -1.656777 1.722274 23.817149 17.652525 9.793638 57.307431 18.224237 6.498844 -21.500460 24.350496 -15.653801 -5.904976 3.238787 1.814994 
-1.867648 0.678367 0.995187 -45.306974 1.166669 88.157959 0.953181 -5.695871 -3.210667 -6.158823 -18.302888 17.668787 3.807558 12.056217 -20.695993 0.000000 -0.000000 0.000000 -2.866344 0.163691 -10.306856 -1.065877 2.966964 11.560590 1.693282 -7.478239 -7.657395 0.000000 -0.000000 0.000000 -4.425764 3.801601 9.495094 1.247021 -3.070526 25.301557 2.053222 1.132340 -5.473048 -0.959822 19.180136 -6.214622 0.840031 16.500511 -19.915794 -23.485741 -14.158680 3.825380 -57.393653 -14.448696 7.542534 22.879339 -19.471082 -23.961076 -5.079679 -2.077206 2.013073 23.604261 17.961960 9.553141 57.358389 18.103732 6.375206 -21.306749 24.497023 -15.196997 -6.508018 3.351905 1.593435 
-1.876237 0.681712 0.995447 -43.441257 0.969675 88.387867 1.528093 -5.780775 -3.608346 -6.494208 -19.339363 18.140382 3.506028 11.471503 -20.495289 0.000000 -0.000000 0.000000 -2.663809 -0.383342 -10.048619 -1.011283 2.069388 11.709010 1.221699 -8.131814 -8.153861 0.000000 -0.000000 0.000000 -4.712556 3.668111 9.471580 1.331383 -3.252193 25.410322 2.296543 1.092289 -5.378825 -1.030915 19.548483 -6.551263 0.703761 17.143617 -19.572306 -23.791652 -14.801124 4.270054 -57.015677 -14.481402 7.016806 23.621122 -20.915883 -24.959814 -3.865790 -2.108273 2.239451 23.735856 18.508133 9.954214 56.938363 18.051631 5.778437 -21.036874 24.535151 -15.388640 -6.853056 3.579143 2.054374 
